<?xml version="1.0" standalone="no"?>
<!DOCTYPE svg PUBLIC "-//W3C//DTD SVG 1.1//EN" "http://www.w3.org/Graphics/SVG/1.1/DTD/svg11.dtd" >
<!--
2013-9-30: Created.
-->
<svg>
<metadata>
Created by iconfont
</metadata>
<defs>

<font id="iconfont" horiz-adv-x="1024" >
  <font-face
    font-family="iconfont"
    font-weight="500"
    font-stretch="normal"
    units-per-em="1024"
    ascent="896"
    descent="-128"
  />
    <missing-glyph />
    
    <glyph glyph-name="xiaoxiong-copy-copy" unicode="&#59032;" d="M185.545 118.25300000000004c-34.946 0-63.376 27.806-63.376 61.984v77.949c0 63.749 16.062 126.979 46.45 182.854l6.749 12.41-16.785 28.612c-18.66 31.812-23.698 68.882-14.187 104.381 9.639 35.976 33.011 66.053 65.809 84.691 21.502 12.22 45.91 18.679 70.585 18.679 41.676 0 80.953-17.803 107.758-48.845l10.223-11.837 15.117 4.015c33.568 8.917 68.317 13.438 103.28 13.438 34.964 0 69.712-4.521 103.279-13.438l15.116-4.015 10.223 11.837c26.808 31.041 66.086 48.844 107.763 48.844 24.675 0 49.082-6.458 70.582-18.677 32.8-18.638 56.171-48.715 65.811-84.691 9.511-35.499 4.473-72.569-14.188-104.382l-16.784-28.61 6.749-12.41c30.388-55.879 46.45-119.108 46.45-182.854v-77.949c0-34.179-28.431-61.984-63.377-61.984H185.545zM280.788 664.813c34.407-0.001 66.787-14.648 88.839-40.184l20.445-23.676 30.233 8.031c31.477 8.361 64.066 12.6 96.863 12.6s65.386-4.239 96.86-12.6l30.232-8.031 20.446 23.674c22.056 25.538 54.438 40.185 88.842 40.185 20.352 0 40.488-5.33 58.232-15.413 26.936-15.307 46.118-39.962 54.012-69.426 7.766-28.986 3.645-59.266-11.602-85.26l-9.638-16.428-14.296-24.368 13.497-24.82c14.007-25.757 24.805-53.131 32.093-81.362 7.511-29.095 11.32-59.223 11.32-89.549v-77.949c0-20.393-17.216-36.985-38.378-36.985H185.545c-21.16 0-38.376 16.591-38.376 36.985v77.949c0 30.327 3.808 60.456 11.319 89.55 7.288 28.231 18.086 55.605 32.093 81.361l13.498 24.82-14.296 24.369-9.635 16.424c-15.249 25.997-19.37 56.278-11.604 85.264 7.894 29.463 27.076 54.119 54.014 69.426 17.745 10.084 37.88 15.414 58.23 15.413m0.003 50c-28.196 0.001-56.764-7.068-82.937-21.943-79.492-45.173-106.725-145.218-60.834-223.458l9.638-16.428C115.091 394.94 97.17 328.625 97.17 258.18499999999995v-77.949c0-48.042 39.57-86.985 88.376-86.985h663.247c48.808 0 88.378 38.943 88.378 86.985v77.949c0 70.44-17.923 136.755-49.488 194.799l9.638 16.428c45.891 78.239 18.659 178.285-60.834 223.458-26.169 14.872-54.744 21.942-82.935 21.942-47.852 0-94.608-20.363-126.684-57.504-34.972 9.29-71.742 14.276-109.697 14.276s-74.725-4.986-109.699-14.276c-32.073 37.139-78.835 57.503-126.681 57.505zM517.17 437.238c-120.61 0-218.386-75.101-218.386-149.324s97.776-119.46 218.386-119.46c120.613 0 218.384 45.238 218.384 119.461S637.783 437.238 517.17 437.238z m0-117.594c-37.11 0-67.196 11.311-67.196 29.865 0 18.558 30.085 37.332 67.196 37.332 37.109 0 67.196-18.774 67.196-37.332 0-18.554-30.087-29.865-67.196-29.865z"  horiz-adv-x="1024" />

    
    <glyph glyph-name="45" unicode="&#58926;" d="M958.928 715.904C944.96 729.424 930.832 736 915.76 736l-800 0c-16.16 0-34.128-7.696-46.944-20.08-12.656-12.192-20.816-30.352-20.816-46.24l0-586.096c0-18.848 11.056-29.472 20.816-38.88C82.048 32 100.24 32 110.016 32l811.216 0c9.152 0 24.496 0 37.664 12.72 12.464 11.968 17.088 22.528 17.088 38.88L975.984 669.6800000000001C975.984 688.896 969.952 705.312 958.928 715.904zM944.016 669.664l0-586.112c0-3.792-0.32-6.288-1.536-8.752L620.976 388.192l322.912 283.552C943.904 671.024 944.016 670.384 944.016 669.664zM440.496 369.744l38.624-33.024C490.672 326.81600000000003 505.456 320 520.736 320c0.128 0 0.224 0 0.336 0 15.408 0 30.224 7.008 41.744 17.12l34.048 29.888 310.928-303.04L124.304 64l314.464 303.248C439.52 367.98400000000004 439.904 368.928 440.496 369.744zM115.76 703.968l800 0c3.888 0 7.904-1.456 12.176-4.16L541.76 361.24800000000005c-5.776-5.056-13.184-9.28-20.848-9.28-0.064 0-0.128 0-0.192 0-7.664 0-15.024 4-20.816 8.976L103.168 700.88C107.504 702.816 111.968 703.968 115.76 703.968zM80.016 669.664c0 2.24 0.56 4.704 1.344 7.232L416.528 390.24 86.64 72.12800000000004c-5.328 5.472-6.624 7.888-6.624 11.44L80.016 669.664z"  horiz-adv-x="1024" />

    
    <glyph glyph-name="wodeshoucang" unicode="&#58897;" d="M822.464 460.544c-7.296 21.312-25.856 36.544-48.512 40l-143.36 21.248L568.32 651.136C558.272 672 536.704 685.376 513.216 685.376c-23.36 0-44.992-13.44-55.04-34.24L395.904 521.792 252.48 500.544C229.888 497.088 211.264 481.792 203.904 460.48 196.48 438.912 201.984 415.552 218.176 399.488l105.408-105.344-24.384-145.792c-3.84-22.656 6.016-45.76 25.152-58.88 18.624-12.736 43.904-14.272 64.192-3.52l124.672 67.264 124.8-67.264c8.96-4.608 19.072-7.168 29.184-7.168 12.48 0 24.576 3.584 34.88 10.688 19.2 13.12 28.928 36.224 25.216 58.688L702.72 294.144l105.536 105.344C824.512 415.552 829.824 438.912 822.464 460.544zM782.272 425.536 670.08 313.6c-4.224-4.224-6.208-10.24-5.184-16.128l26.048-155.392c1.344-8.64-2.24-17.28-9.664-22.208-7.488-5.12-17.856-5.888-25.856-1.472l-133.44 71.808c-2.624 1.6-5.696 2.304-8.704 2.304-2.944 0-5.952-0.704-8.64-2.304l-133.44-71.68c-8.128-4.48-18.496-3.776-25.92 1.28-7.424 5.056-11.2 13.696-9.728 22.336l26.048 155.392c0.96 5.888-0.96 11.904-5.12 16.064L244.16 425.6C238.08 431.616 236.032 440.448 238.784 448.512 241.536 456.64 249.088 462.72 257.92 464.064l153.024 22.72c6.08 0.896 11.264 4.736 13.888 10.24l66.496 138.112c3.968 8.064 12.48 13.312 21.888 13.312 9.408 0 17.984-5.248 21.888-13.312l66.432-138.176C604.16 491.584 609.408 487.68 615.552 486.784l153.024-22.72c8.96-1.344 16.256-7.296 19.2-15.488C790.4 440.448 788.416 431.616 782.272 425.536zM315.968 437.12 309.824 436.096C304.768 435.328 301.376 430.592 302.208 425.536c0.768-4.544 4.672-7.744 9.088-7.744 0.512 0 0.96 0.064 1.408 0.128l6.208 1.024C323.904 419.712 327.296 424.448 326.528 429.44 325.696 434.496 321.024 437.952 315.968 437.12zM480.704 547.072 443.136 460.8 343.424 441.536C338.432 440.576 335.104 435.776 336.064 430.72c0.832-4.416 4.672-7.424 9.024-7.424 0.512 0 1.152 0 1.728 0.128l104.512 20.16C454.4 444.16 456.896 446.208 458.048 449.024l39.616 90.688c1.984 4.672-0.192 10.112-4.736 12.16C488.192 553.92 482.816 551.744 480.704 547.072zM513.216-120.96c-277.376 0-502.976 225.6-502.976 502.976 0 277.376 225.6 502.976 502.976 502.976s502.976-225.6 502.976-502.976C1016.192 104.704 790.592-120.96 513.216-120.96zM513.216 852.544c-259.456 0-470.528-211.072-470.528-470.528 0-259.392 211.072-470.464 470.528-470.464s470.528 211.072 470.528 470.464C983.68 641.472 772.608 852.544 513.216 852.544z"  horiz-adv-x="1024" />

    
    <glyph glyph-name="youhuiquan" unicode="&#58929;" d="M853.968-19.959h-683.936c-41.477 0-75.204 33.727-75.204 75.204v164.49c0 25.978 16.482 48.572 41.15 56.103 21.939 6.767 41.586 20.738 55.449 39.185 14.299 19.101 21.83 41.805 21.83 65.709 0 23.904-7.532 46.607-21.83 65.709-13.862 18.446-33.509 32.418-55.449 39.185-24.559 7.641-41.15 30.126-41.15 56.103v164.708c0 41.477 33.727 75.204 75.204 75.204h683.936c41.477 0 75.204-33.727 75.204-75.204v-164.598c0-25.978-16.482-48.572-41.15-56.103-21.939-6.767-41.586-20.738-55.449-39.185-14.299-19.101-21.83-41.805-21.83-65.709 0-23.904 7.532-46.607 21.83-65.709 13.862-18.446 33.509-32.418 55.449-39.185 24.559-7.641 41.15-30.126 41.15-56.103v-164.598c0-41.477-33.727-75.204-75.204-75.204zM170.032 742.237c-19.756 0-35.91-16.045-35.91-35.91v-164.49c0-8.514 5.567-16.155 13.425-18.556 29.798-9.169 56.54-28.051 75.314-53.156 19.428-25.978 29.689-56.867 29.689-89.285 0-32.527-10.26-63.417-29.689-89.285-18.773-25.105-45.516-43.878-75.314-53.156-7.859-2.401-13.425-10.042-13.425-18.556v-164.598c0-19.756 16.045-35.91 35.91-35.91h683.936c19.756 0 35.91 16.045 35.91 35.91v164.49c0 8.514-5.567 16.155-13.425 18.556-29.798 9.169-56.54 28.051-75.314 53.156-19.428 25.978-29.689 56.867-29.689 89.285 0 32.527 10.26 63.417 29.689 89.285 18.773 25.105 45.516 43.987 75.314 53.156 7.859 2.401 13.425 10.042 13.425 18.556v164.708c0 19.756-16.045 35.91-35.91 35.91l-683.936-0.109zM660.007 314.913h-129.779v76.297h129.779c10.806 0 19.647 8.842 19.647 19.647s-8.842 19.647-19.647 19.647h-98.781l111.333 111.333c7.641 7.641 7.641 20.083 0 27.834-7.641 7.641-20.083 7.641-27.834 0l-132.509-132.618-132.618 132.618c-7.641 7.641-20.083 7.641-27.834 0s-7.641-20.083 0-27.834l111.333-111.333h-99.108c-10.806 0-19.647-8.842-19.647-19.647s8.842-19.647 19.647-19.647h126.942v-76.297h-126.942c-10.806 0-19.647-8.842-19.647-19.647s8.842-19.647 19.647-19.647h126.942v-106.64c0-10.806 8.842-19.647 19.647-19.647s19.647 8.842 19.647 19.647v106.64h129.779c10.806 0 19.647 8.842 19.647 19.647s-8.842 19.647-19.647 19.647z"  horiz-adv-x="1024" />

    
    <glyph glyph-name="sms" unicode="&#58886;" d="M657.824 371.9l361.297 355.084c-8.236 17.205-25.805 29.09-46.155 29.09H52.408c-20.35 0-37.918-11.885-46.154-29.09L367.551 371.9c80.155-50.533 210.117-50.533 290.273 0zM1.266 656.44v-569.842l300.311 285.65L1.266 656.439z m722.53-284.192l300.312-285.65V656.44L723.796 372.24699999999996z m-47.042-44.518c-90.611-57.504-237.522-57.504-328.133 0l-13.53 12.802L7.048 16.47199999999998c8.532-16.356 25.636-27.529 45.36-27.529h920.558c19.725 0 36.83 11.173 45.361 27.53l-328.043 324.06-13.53-12.804z"  horiz-adv-x="1025" />

    
    <glyph glyph-name="icon" unicode="&#58890;" d="M875.25707555-19.07981590999998L158.7511008-19.07981590999998c-65.95196363 0-119.41589585 53.46393222-119.41589586 119.41987008L39.33520494 637.71622316c0 65.95196363 53.46393222 119.41589585 119.41589586 119.41589585l716.50597475 0c65.94534077 0 119.41589585-53.46393222 119.41589585-119.41589585l0-537.37616899C994.67164709 34.38411500999996 941.20241632-19.07981590999998 875.25707555-19.07981590999998M158.7511008 40.63011846999996l716.50597475 0c32.97333318 0 59.70463585 26.73395258 59.70463585 59.7099357L934.96171269 518.29635308l-835.91789637 0 0-417.95629891c0-32.97730742 26.73262827-59.70993568 59.70993569-59.7099357L158.7511008 40.63011846999996zM875.25707555 697.4274831600001L158.7511008 697.4274831600001c-32.97333318 0-59.70596146-26.73262827-59.70596146-59.71126l0-59.70993569 835.91789637 0L934.96303701 637.71622316C934.96171269 670.69485489 908.23438298 697.4274831600001 875.25707555 697.4274831600001M188.60871856 339.17052155l298.54040307 0c16.48600444 0 29.85761648-13.36101494 29.85761647-29.85231793 0-16.48600444-13.37161333-29.85761648-29.85761647-29.85761647L188.60871856 279.46058586000004c-16.4926273 0-29.85761648 13.37161333-29.85761647 29.85761647C158.7511008 325.80950659999996 172.11608997 339.17052155 188.60871856 339.17052155M188.60871856 219.75727432999997l238.83576592 0c16.48600444 0 29.85231792-13.36234054 29.85231793-29.85231792 0-16.48732876-13.36631478-29.85761648-29.85231793-29.85761648L188.60871856 160.04733993000002c-16.4926273 0-29.85761648 13.37028772-29.85761647 29.85761648C158.7511008 206.39493506999997 172.11608997 219.75727432999997 188.60871856 219.75727432999997M606.56899171 339.17052155l59.70463584 0c16.48600444 0 29.85761648-13.36101494 29.85761647-29.85231793 0-16.48600444-13.37161333-29.85761648-29.85761647-29.85761647l-59.70463584 0c-16.49660154 0-29.85761648 13.37161333-29.85761648 29.85761647C576.71004963 325.80950659999996 590.07106457 339.17052155 606.56899171 339.17052155"  horiz-adv-x="1024" />

    
    <glyph glyph-name="shenqingchengweiVIP" unicode="&#58887;" d="M1003.23456 571.9680000000001c-22.72 26.048-164.032 192.768-217.92 250.944-16.64 17.984-28.928 30.4-54.464 31.36-25.408 1.024-435.776 0-435.776 0-14.08 0-32.064-3.2-55.296-30.4-54.08-63.36-176-203.008-217.152-251.968-27.904-32.256-31.36-78.144 0-125.44 66.88-77.824 250.944-289.024 435.904-501.824 26.176-30.336 42.752-31.424 54.464-31.424 11.456 0 27.712 0.576 54.528 31.424 183.104 210.816 358.848 412.288 435.712 501.824 25.92 31.424 30.784 88.32 0 125.504z m-54.528-94.08c-61.376-71.552-245.888-276.608-392-445.504-21.376-24.704-34.304-25.024-43.456-25.024-9.28 0-22.464 0.896-43.456 25.024-147.584 170.432-339.328 383.168-392.64 445.504-14.848 15.232-14.528 40.832 0 62.72 32.768 39.168 147.328 169.088 190.592 219.52 32.128 37.504 60.288 31.424 71.552 31.424h347.776c41.728 0 51.648-9.216 70.912-31.424 41.728-47.936 172.608-198.656 190.656-219.52 16.192-22.912 11.328-44.608 0.064-62.72z m-435.648-346.368c-47.68 64-216.704 269.312-259.84 328l-3.328 4.16c-7.424 9.92-14.08 14.592-32.192 14.592h-2.304v44.224h95.744c2.816 0 3.456 0 5.376-3.136l196.032-252.096 196.352 251.456c2.496 3.84 3.392 3.84 6.016 3.84h95.296v-44.288h-2.176c-17.92 0-24.704-4.672-32.128-14.656-0.768-0.96-1.536-2.112-2.688-3.392-43.584-59.2-212.544-264.704-260.16-328.704z m0 0"  horiz-adv-x="1024" />

    
    <glyph glyph-name="wodekefu" unicode="&#59163;" d="M516.096 119.808c4.608 0 9.216 0.512 13.824 1.024 44.032 5.12 80.896 35.84 94.72 78.336 1.024 3.072-0.512 6.656-3.584 7.68-3.072 1.536-6.656 0-8.192-2.56 0-0.512-17.408-28.672-85.504-37.376-10.24-1.536-19.968-2.048-29.184-2.048-47.616 0-68.608 17.92-69.12 17.92-2.56 2.048-6.144 2.048-8.704 0s-3.072-5.632-1.536-8.192c20.992-33.792 58.368-54.784 97.28-54.784z m365.056 420.864h-1.536c-39.936 172.032-191.488 300.544-373.76 300.544-187.392 0-342.528-135.68-376.832-314.88-33.28-6.144-58.88-35.328-58.88-71.168v-142.336c0-39.936 32.256-72.192 71.68-72.192 22.528 0 41.984 10.752 55.296 26.624 31.744-83.456 96.256-151.04 177.664-186.88 0 0.512 1.536 3.584 3.584 5.632 1.536 1.536 2.56 3.072 4.096 3.072 1.024 0 2.56-0.512 3.584-1.024-18.944 13.824-87.04 86.016-101.888 186.88-6.656 44.544 26.624 88.064 65.536 95.232 61.952 11.776 123.904 24.576 185.856 35.84 39.424 7.168 66.56 28.672 82.944 65.024 4.096 8.192 9.216 25.6 11.776 50.176 0.512 3.584 3.584 6.656 7.68 6.656 2.56 0 4.608-1.536 6.144-3.072l1.536 1.024c24.576-35.328 73.216-114.176 79.872-197.12 8.192-94.72 3.584-159.744-69.12-226.304l-0.512-0.512c-1.024-1.024-1.536-2.56-1.536-4.096 0-2.048 1.024-3.584 2.56-4.608 0.512 0 1.024-0.512 2.048-1.024 0.512 0 1.024-0.512 1.536-0.512 0.512 0 1.024 0 1.536 0.512l3.072 1.536c73.216 40.448 129.536 108.032 155.648 189.44 10.752-15.872 27.136-27.136 46.08-30.72-30.72-139.776-155.648-227.328-309.76-240.64-9.216 23.04-32.256 39.424-58.88 39.424-34.816 0-63.488-27.648-63.488-61.952 0-34.304 28.16-61.952 63.488-61.952 28.16 0 51.712 17.92 59.904 43.008 178.688 14.336 322.048 120.832 352.256 286.208 26.624 11.264 45.056 36.864 45.056 67.072V467.456c-1.024 40.448-33.792 73.216-74.24 73.216z m-66.048-41.472c-46.592 126.464-167.424 216.576-309.76 216.576-141.824 0-262.144-89.6-309.248-215.04-2.56 3.072-5.12 5.12-7.68 7.68C215.04 661.504 346.624 777.728 505.344 777.728c158.208 0 289.28-115.2 316.928-267.264-2.56-3.584-5.12-7.168-7.168-11.264zM373.76 80.384z"  horiz-adv-x="1024" />

    
    <glyph glyph-name="laoshi" unicode="&#58888;" d="M311.6 303.20000000000005c-80.4 0-145.7 65.4-145.7 145.7s65.4 145.7 145.7 145.7S457.3 529.3 457.3 449s-65.4-145.8-145.7-145.8z m0 243.6c-53.9 0-97.8-43.9-97.8-97.8s43.9-97.8 97.8-97.8 97.8 43.9 97.8 97.8-43.9 97.8-97.8 97.8zM556.5-6.600000000000023h-47.9V137.70000000000005c0 56.4-45.9 102.3-102.3 102.3H216.8c-56.4 0-102.3-45.9-102.3-102.3v-144.3H66.6V137.70000000000005C66.6 220.60000000000002 134 288 216.8 288h189.4c82.8 0 150.2-67.4 150.2-150.2v-144.4zM957.4 97.29999999999995H657.8v47.9h251.7V736.5H272.4v-107.9h-47.9V784.4h732.9zM510.715 3.26400000000001l184.668 411.903 43.709-19.596-184.668-411.903z"  horiz-adv-x="1024" />

    
    <glyph glyph-name="tixing" unicode="&#58945;" d="M980.224 102.272c-53.568 0-113.28 80-113.28 194.816V483.584c0 162.432-136.768 296.576-312.448 315.648V857.088c0 21.184-19.2 38.4-42.88 38.4-23.616 0-42.816-17.216-42.816-38.4v-57.856C293.12 780.16 156.352 646.016 156.352 483.584v-186.496c0-114.752-59.712-194.816-113.28-194.816-23.68 0-42.88-17.216-42.88-38.4 0-21.12 19.2-38.336 42.88-38.336h272.384c13.888-87.616 97.472-152.768 196.288-153.024 100.032 0 182.336 66.752 196.16 153.024h272.448c23.68 0 42.88 17.28 42.816 38.4 0 21.184-19.2 38.4-42.88 38.336zM242.048 296.96V483.584c0 133.184 120.96 241.472 269.632 241.472 148.608 0 269.568-108.352 269.568-241.472v-186.496c0-77.312 22.592-145.856 59.392-194.816H182.656c36.736 48.96 59.392 117.504 59.392 194.752z m269.632-347.84c-51.648 0.128-96.64 31.488-109.44 76.288h218.88c-12.864-44.8-57.856-76.16-109.44-76.288z"  horiz-adv-x="1024" />

    
    <glyph glyph-name="dingdan" unicode="&#58889;" d="M879.676289 800.168315h-157.568069a74.094924 74.094924 0 0 1-71.977262 55.850445h-78.074269a66.112965 66.112965 0 0 1-121.451448 0h-79.354174a74.281093 74.281093 0 0 1-71.977262-55.850445H141.705736A71.744551 71.744551 0 0 1 69.844829 727.446381v-782.720723A72.489224 72.489224 0 0 1 141.822091-127.99627699999996h736.667376a74.886139 74.886139 0 0 1 75.607541 72.721935V727.446381A72.931373 72.931373 0 0 1 879.676289 800.168315zM512.506152 765.005805a58.177547 58.177547 0 1 0-59.550538-58.177547 58.875678 58.875678 0 0 0 59.550538 58.177547zM739.584755 162.89146000000005a27.250363 27.250363 0 0 0-27.320176-26.691858H312.980435A27.250363 27.250363 0 0 0 285.660259 162.89146000000005v24.20186a27.250363 27.250363 0 0 0 27.320176 26.691859h399.284144a27.250363 27.250363 0 0 0 27.320176-26.691859z m0 246.021213a27.250363 27.250363 0 0 0-27.320176-26.691859H312.980435a27.250363 27.250363 0 0 0-27.320176 26.691859v24.178589a27.250363 27.250363 0 0 0 27.320176 26.691858h399.284144a27.250363 27.250363 0 0 0 27.320176-26.691858z"  horiz-adv-x="1024" />

    
    <glyph glyph-name="dingdan2" unicode="&#58900;" d="M871.594667 801.041067H715.434667a73.4208 73.4208 0 0 1-71.338667 55.330133h-77.346133a65.536 65.536 0 0 1-120.354134 0H367.786667c-33.655467 0-63.010133-22.766933-71.338667-55.330133H140.322133A71.099733 71.099733 0 0 1 69.085867 728.9856v-775.611733a71.850667 71.850667 0 0 1 71.338666-72.0896H870.4a74.205867 74.205867 0 0 1 74.922667 72.0896V728.9856a72.260267 72.260267 0 0 1-73.728 72.021333z m-363.861334-34.816a57.6512 57.6512 0 1 0-58.9824-57.685334 58.368 58.368 0 0 0 58.9824 57.685334z m225.041067-596.650667a26.999467 26.999467 0 0 0-27.101867-26.487467H310.033067a26.999467 26.999467 0 0 0-27.067734 26.453334v23.995733a26.999467 26.999467 0 0 0 27.067734 26.453333h395.639466a26.999467 26.999467 0 0 0 27.101867-26.453333v-23.995733z m0 243.746133a26.999467 26.999467 0 0 0-27.101867-26.4192H310.033067a26.999467 26.999467 0 0 0-27.067734 26.4192v23.9616a26.999467 26.999467 0 0 0 27.067734 26.453334h395.639466a26.999467 26.999467 0 0 0 27.101867-26.453334v-23.9616z"  horiz-adv-x="1024" />

    
    <glyph glyph-name="touxiang" unicode="&#58902;" d="M510.154955 385.845045m-505.542342 0a505.542342 505.542342 0 1 1 1011.084684 0 505.542342 505.542342 0 1 1-1011.084684 0ZM510.154955 891.387387C231.553153 891.387387 5.535135 665.369369 5.535135 385.845045S231.553153-118.774775 510.154955-118.774775c278.601802 0 505.542342 226.018018 505.542342 505.542343S789.679279 891.387387 510.154955 891.387387z m249.081081-711.264864c0-65.499099-125.463063-80.259459-242.623423-80.25946-117.16036 0-243.545946 14.76036-243.545946 80.25946v17.527927c0 47.971171 86.717117 96.864865 160.518919 123.618018 5.535135 1.845045 30.443243 15.682883 16.605405 53.506307-36.900901 36.900901-63.654054 97.787387-63.654054 156.828829 0 91.32973 59.963964 138.378378 130.998198 138.378378 70.111712 0 130.998198-47.971171 130.998198-138.378378 0-59.041441-27.675676-119.005405-63.654054-156.828829-13.837838-42.436036 8.302703-52.583784 11.992793-53.506307 77.491892-25.830631 164.209009-73.801802 164.209009-123.618018v-17.527927z"  horiz-adv-x="1024" />

    
    <glyph glyph-name="lianxi" unicode="&#59270;" d="M677.888 65.024c0-17.92-14.336-32.256-32.256-32.256h-465.92c-17.92 0-32.256 14.336-32.256 32.256V700.416c0 17.92 14.336 32.256 31.744 32.256h467.968c17.92 0 31.744-14.336 31.744-32.256v-209.92l61.44 61.44v148.48c1.536 52.736-33.792 96.256-77.824 96.256h-496.64c-44.032 0-80.384-43.52-80.384-94.72V66.56c0-52.736 43.52-94.72 94.72-94.72h465.92c22.528 0 44.032 7.68 59.904 20.992 5.12 4.608 8.192 7.68 12.8 12.8 13.312 17.408 20.992 37.376 20.992 59.904v114.688l-61.44-62.464v-52.736zM545.792 566.272c0 17.92-14.336 32.256-32.256 32.256H244.224c-17.92 0-32.256-14.336-32.256-32.256s14.336-32.256 32.256-32.256h269.824c17.408 0 31.744 14.336 31.744 32.256zM237.568 405.504c-13.312 0-24.576-14.336-24.576-32.256s11.264-32.256 24.576-32.256h210.944c13.312 0.512 24.576 14.848 24.576 32.256 0 17.92-11.264 32.256-24.576 32.256H237.568z m673.28 133.12c-17.92 17.92-41.472 28.672-66.56 28.672s-49.664-9.728-67.584-27.648l-240.64-241.664c-17.92-17.408-27.648-40.448-28.672-66.048 0-11.776 2.048-24.064 6.656-35.328l-40.448-40.448c-3.584-3.584 4.608-15.872 15.872-28.672 12.8-12.8 25.6-19.456 28.672-15.872l37.376 37.376c14.336-8.192 30.208-11.776 46.592-11.776 24.576 0 48.64 9.728 66.56 27.136l241.664 241.664c17.92 17.408 27.648 40.448 28.672 66.048 0.512 24.576-10.24 48.64-28.16 66.56zM623.616 209.92c-6.144-5.12-13.312-8.192-20.992-8.192-8.192 0-15.872 3.072-20.992 8.192-6.144 6.144-9.216 13.312-9.216 21.504 0 7.68 3.072 14.848 8.192 20.48l107.008 107.008 41.984-41.984-105.984-107.008zM865.28 451.584l-90.112-90.112-41.984 41.984 89.088 89.088c6.144 6.144 13.312 9.216 20.992 9.216s14.848-3.072 20.48-8.192l0.512-0.512c6.144-6.144 9.216-13.312 9.216-21.504s-3.072-14.848-8.192-19.968z"  horiz-adv-x="1024" />

    
    <glyph glyph-name="jilu1" unicode="&#58880;" d="M529.705011 350.396613m-27.460833 0a27.460833 27.460833 0 1 1 54.921665 0 27.460833 27.460833 0 1 1-54.921665 0ZM433.592096 350.396613m-27.460833 0a27.460833 27.460833 0 1 1 54.921666 0 27.460833 27.460833 0 1 1-54.921666 0ZM337.479181 350.396613m-27.460832 0a27.460833 27.460833 0 1 1 54.921665 0 27.460833 27.460833 0 1 1-54.921665 0ZM806.481299 764.477064H227.63585c-25.292872 0-45.52717-20.234298-45.52717-45.52717v-671.345095c0-25.292872 20.234298-45.52717 45.52717-45.52717h578.845449c25.292872 0 45.52717 20.234298 45.52717 45.52717V718.227241c0.722653 25.292872-20.234298 46.249824-45.52717 46.249823z m-4.335921-712.536344H232.694425V713.89132H802.145378v-661.9506zM333.865914 594.653493H700.973888c13.730416 0 25.292872 11.562456 25.292873 25.292873s-11.562456 25.292872-25.292873 25.292872H333.865914c-13.730416 0-25.292872-11.562456-25.292872-25.292872s10.839802-25.292872 25.292872-25.292873zM333.865914 457.34933H700.973888c13.730416 0 25.292872 11.562456 25.292873 25.292872s-11.562456 25.292872-25.292873 25.292872H333.865914c-13.730416 0-25.292872-11.562456-25.292872-25.292872s10.839802-25.292872 25.292872-25.292872z"  horiz-adv-x="1024" />

    
    <glyph glyph-name="kecheng" unicode="&#58882;" d="M300.21875 15.703125H171.546875c-13.5 0-24.46875 10.96875-24.46875 24.46875V739.640625c0 13.5 10.96875 24.46875 24.46875 24.46875h128.671875c13.5 0 24.46875-10.96875 24.46875-24.46875V40.171875c-0.421875-13.5-10.96875-24.46875-24.46875-24.46875z m216.421875 0h-128.671875c-13.5 0-24.46875 10.96875-24.46875 24.46875V739.640625c0 13.5 10.96875 24.46875 24.46875 24.46875h128.671875c13.5 0 24.46875-10.96875 24.46875-24.46875V40.171875c0-13.5-10.96875-24.46875-24.46875-24.46875zM879.03125 42.28125l-124.875-30.796875c-13.078125-3.375-26.15625 4.640625-29.53125 17.71875L556.296875 708c-3.375 13.078125 4.640625 26.15625 17.71875 29.53125l124.875 30.796875c13.078125 3.375 26.15625-4.640625 29.53125-17.71875L896.75 71.8125c3.375-13.078125-4.640625-26.15625-17.71875-29.53125z"  horiz-adv-x="1024" />

    
    <glyph glyph-name="xuexi" unicode="&#59377;" d="M942.16192 538.17344v-157.65504l35.92192-43.6224-69.44768-62.8736-63.87712 62.8736 38.31808 44.4416V512.2048C677.888 424.96 621.99808 397.29152 576.512 376.32c-45.50656-20.97152-78.2336-20.97152-123.74016-3.35872-44.72832 17.6128-249.91744 98.95936-356.88448 151.79776-71.0656 35.2256-75.85792 57.87648 1.57696 88.064C198.06208 652.22656 354.52928 715.96032 442.368 750.34624c51.89632 21.8112 79.83104 33.54624 127.73376 9.216 85.44256-36.88448 270.66368-112.35328 368.06656-154.29632 84.64384-38.56384 27.9552-51.15904 3.9936-67.09248zM586.87488 310.90688c49.50016 20.97152 116.57216 56.19712 190.01344 88.8832v-259.95264S682.68032 35.84 515.80928 35.84c-178.83136 0-275.456 103.99744-275.456 103.99744V383.03744c56.70912-23.49056 119.76704-44.4416 196.4032-71.2704 47.12448-18.47296 107.008-24.33024 150.1184-0.86016z"  horiz-adv-x="1024" />

    
    <glyph glyph-name="dianji" unicode="&#58925;" d="M877.759657 316.799583c63.99994-221.119793-8.319992-262.079754 13.759987-336.639684L604.479913-128c-23.359978 55.999948-95.99991 60.159944-159.99985 95.99991s-108.159899 107.1999-275.839741 103.679903c-63.039941-1.279999-59.839944 48.959954-33.919968 77.119928C177.280314 194.879697 224.00027 176.959714 288.00021 167.039723c54.719949-8.319992 108.479898 7.039993 104.959902 36.479966-6.399994 44.799958-16.959984 88.639917-31.99997 131.199877-14.719986 49.279954-41.919961 138.23987-67.199937 223.99979-32.31997 112.959894-42.23996 165.119845 2.239997 176.959834 44.799958 11.839989 75.519929-54.079949 100.479906-148.79986 28.479973-107.839899 43.519959-155.519854 51.839952-152.959857 14.719986 4.159996-5.439995 50.239953 31.99997 61.759942 48.319955 14.079987 57.599946-23.679978 71.039933-20.159981 13.439987 3.519997 8.959992 42.55996 47.679955 53.75995 38.719964 11.19999 57.919946-36.479966 73.919931-31.99997 15.999985 4.479996 15.359986 21.75998 39.359963 28.479973 23.999978 6.719994 113.919893-31.99997 165.439845-208.959804z m-623.999415 239.359776a171.903839 171.903839 0 0 0-134.079874 168.319842A171.935839 171.935839 0 0 0 292.160206 895.99904c95.039911-0.32 171.839839-77.439927 171.519839-172.479838 0-37.439965-12.159989-73.919931-34.879967-103.679903-7.039993 26.559975-15.999985 52.479951-27.199975 77.759927 1.919998 7.999993 3.199997 16.639984 3.199997 24.959977 0.32 40.639962-20.799981 78.079927-55.679947 98.559907a112.447895 112.447895 0 0 1-154.239856-39.999962 112.831894 112.831894 0 0 1 39.999963-154.559855c5.119995-23.039978 11.839989-46.719956 18.879982-70.399934z"  horiz-adv-x="1024" />

    
    <glyph glyph-name="user_choose" unicode="&#58881;" d="M512 730.06933594h192.26932526v-192.26932526c0-106.215477-86.05384826-192.26932526-192.26932526-192.26932526S319.73067474 431.58453369 319.73067474 537.80001068 405.784523 730.06933594 512 730.06933594zM338.96533203 307.06137085h346.06933594c74.31221008 0 134.56535338-60.25314331 134.56535338-134.5653534v-19.23465729c0-63.7292862-51.67865753-115.3306961-115.3306961-115.3306961H319.73067474c-63.7292862 0-115.3306961 51.67865753-115.33069609 115.33069611v19.23465728c-0.07724763 74.31221008 60.1758957 134.56535338 134.56535338 134.5653534z"  horiz-adv-x="1024" />

    
    <glyph glyph-name="touxiang1" unicode="&#58883;" d="M758.41536 201.35936000000004c0 0-17.42848 55.17312-73.58464 55.17312L390.51264 256.53247999999996c-56.15616 0-71.80288-55.17312-71.80288-55.17312L245.76 35.84000000000003l573.44 0L758.41536 201.35936000000004zM531.47648 270.31552c125.3376 0 226.93888 98.79552 226.93888 220.69248C758.41536 612.8844799999999 656.81408 711.6800000000001 531.47648 711.6800000000001c-125.3376 0-226.93888-98.79552-226.93888-220.672C304.51712 369.11104 406.13888 270.31552 531.47648 270.31552zM494.24384 651.6736c-26.19392-122.40896 122.6752-89.57952 211.33312-160.6656 0-93.4912-77.94688-169.28768-174.10048-169.28768-96.1536 0-174.10048 75.79648-174.10048 169.28768C509.8496 541.3888 424.69376 627.5276799999999 494.24384 651.6736z"  horiz-adv-x="1024" />

    
    <glyph glyph-name="xiaolianed" unicode="&#58884;" d="M512 852.992c258.633143 0 468.992-210.407619 468.992-468.992 0-258.633143-210.358857-468.992-468.992-468.992a465.286095 465.286095 0 0 0-195.876571 42.715429c-16.335238 7.509333-37.888 11.02019-67.779048 11.02019-51.833905 0-121.709714-11.068952-172.129524-20.577524 3.510857 18.724571 6.680381 37.497905 9.557333 56.32 18.578286 122.09981 9.557333 162.669714-0.341333 184.32a465.13981 465.13981 0 0 0-42.422857 195.193905C43.008 642.584381 253.366857 852.992 512 852.992z m0 43.008C229.229714 896 0 666.7702859999999 0 384c0-76.068571 16.579048-148.23619 46.32381-213.089524 25.551238-55.783619-25.307429-278.089143-25.307429-278.089143s142.238476 32.963048 227.328 32.963048c21.162667 0 38.814476-2.048 49.834667-7.119238 65.048381-29.988571 137.508571-46.665143 213.820952-46.665143C794.770286-128 1024 101.18095200000005 1024 384S794.770286 896 512 896zM326.119619 491.715048c-28.42819 6.339048-69.583238 5.266286-78.214095-25.112381-5.217524-18.334476 24.33219-21.113905 50.907428-27.599238 21.796571-5.36381 33.499429-17.16419 30.476191-21.113905-5.266286-6.680381-37.254095 6.241524-65.536-3.900953-28.281905-10.191238-22.674286-37.400381-6.582857-44.275809 16.091429-6.826667 43.641905 0.731429 105.472-9.752381 32.280381-5.36381 50.858667 5.461333 54.076952 24.966095 7.460571 45.543619-51.2 98.011429-90.599619 106.788572z m337.871238-221.574096h-0.243809c0 0.390095 0.195048 0.682667 0.195047 1.024a20.772571 20.772571 0 0 1-20.382476 21.162667 20.772571 20.772571 0 0 1-20.333714-21.162667c0-0.341333 0.195048-0.633905 0.195047-1.024h-0.195047c0-35.011048-27.306667-63.390476-61.049905-63.390476-33.694476 0-61.049905 28.379429-61.049905 63.390476h-0.243809c0 0.390095 0.24381 0.682667 0.243809 1.024a20.72381 20.72381 0 0 1-20.333714 21.162667 20.772571 20.772571 0 0 1-20.382476-21.162667c0-0.341333 0.24381-0.633905 0.243809-1.024h-0.146285C460.653714 211.82171400000004 506.148571 164.57142899999997 562.273524 164.57142899999997c56.222476 0 101.766095 47.299048 101.766095 105.667047l-0.048762 0.585143v-0.682667zM796.281905 505.904762c-44.958476 0-81.432381-37.888-81.432381-84.553143s36.473905-84.553143 81.432381-84.553143c44.958476 0 81.383619 37.888 81.383619 84.553143S841.289143 505.904762 796.330667 505.904762z"  horiz-adv-x="1024" />

    
    <glyph glyph-name="icon-test" unicode="&#58885;" d="M733.98044445 391.168H552.84622222V682.32533333c0 1.25155555-1.024 2.27555555-2.27555555 2.27555556h-68.83555556c-1.25155555 0-2.27555555-1.024-2.27555556-2.27555556v-362.15466666c0-1.25155555 1.024-2.27555555 2.27555556-2.27555556H733.86666667c1.25155555 0 2.27555555 1.024 2.27555555 2.27555556v68.83555555c0.11377778 1.13777778-0.91022222 2.16177778-2.16177777 2.16177778zM844.45866667 15.928888890000053C933.43288889 102.62755555000001 988.72888889 223.57333332999997 988.72888889 357.26222222c0 108.08888889-36.18133333 207.872-97.05244444 287.97155556 26.85155555 27.30666667 41.984 63.82933333 41.984 102.74133333 0 80.896-65.76355555 146.65955555-146.65955556 146.65955556-57.344 0-107.97511111-32.768-131.98222222-82.60266667-45.16977778 14.22222222-93.184 21.95911111-143.01866667 21.95911111s-97.84888889-7.73688889-143.01866667-21.95911111c-24.00711111 49.49333333-74.63822222 82.60266667-131.98222222 82.60266667-80.896 0-146.65955555-65.76355555-146.65955556-146.65955556 0-39.02577778 15.47377778-75.776 41.984-102.74133333C71.45244445 565.248 35.27111111 465.35111111 35.27111111 357.26222222c0-125.72444445 48.92444445-240.18488889 128.68266667-325.51822222l-106.04088889-106.04088889c-0.91022222-0.91022222-0.91022222-2.38933333 0-3.18577778l48.69688889-48.69688888c0.91022222-0.91022222 2.38933333-0.91022222 3.18577777 0l108.31644445 108.31644444c81.00977778-63.60177778 183.18222222-101.60355555 293.888-101.60355556 102.74133333 0 197.97333333 32.65422222 275.91111111 88.17777778l94.77688889-94.77688889c0.91022222-0.91022222 2.38933333-0.91022222 3.18577778 0l48.69688889 48.69688889c0.91022222 0.91022222 0.91022222 2.38933333 0 3.18577778l-90.112 90.112z m-57.45777778 805.43288889c40.39111111 0 73.38666667-32.88177778 73.38666666-73.38666667 0-17.74933333-6.37155555-34.47466667-17.63555555-47.67288889-35.04355555 33.792-75.32088889 62.35022222-119.35288889 84.19555556 12.74311111 22.41422222 36.75022222 36.864 63.60177778 36.864z m-550.00177778 0c26.96533333 0 50.85866667-14.56355555 63.60177778-36.75022223-44.032-21.84533333-84.30933333-50.40355555-119.35288889-84.19555555-11.15022222 13.08444445-17.63555555 29.92355555-17.63555555 47.67288889 0 40.39111111 32.88177778 73.27288889 73.38666666 73.27288889zM108.65777778 357.26222222C108.65777778 579.69777778 289.56444445 760.60444445 512 760.60444445s403.34222222-180.90666667 403.34222222-403.34222223S734.43555555-46.08000000000004 512-46.08000000000004 108.65777778 134.94044444999997 108.65777778 357.26222222z"  horiz-adv-x="1024" />

    


  </font>
</defs>
</svg>
